<svg xmlns="http://www.w3.org/2000/svg" viewBox="0 0 64 64">
  <!-- Boston Terrier Face -->
  <circle cx="32" cy="32" r="30" fill="white" stroke="black" stroke-width="2"/>
  
  <!-- Ears -->
  <path d="M12 10 L22 25 L12 30 Z" fill="black"/>
  <path d="M52 10 L42 25 L52 30 Z" fill="black"/>
  
  <!-- Black Mask -->
  <path d="M12 30 Q32 20 52 30 L52 15 Q32 5 12 15 Z" fill="black"/>
  <path d="M12 30 Q20 45 10 40 L12 18 Z" fill="black"/>
  <path d="M52 30 Q44 45 54 40 L52 18 Z" fill="black"/>
  
  <!-- White Stripe -->
  <path d="M28 10 L36 10 L34 35 L30 35 Z" fill="white"/>
  
  <!-- Eyes -->
  <circle cx="24" cy="35" r="3" fill="black"/>
  <circle cx="40" cy="35" r="3" fill="black"/>
  
  <!-- Nose -->
  <ellipse cx="32" cy="42" rx="4" ry="3" fill="black"/>
  
  <!-- Mouth -->
  <path d="M28 48 Q32 52 36 48" fill="none" stroke="black" stroke-width="2"/>
</svg>
